<svg width="24" height="24" viewBox="0 0 24 24" fill="none" xmlns="http://www.w3.org/2000/svg">
<path d="M16.617 14.4957C17.0075 14.1052 17.6407 14.1052 18.0312 14.4957C18.4217 14.8862 18.4217 15.5194 18.0312 15.9099L14.8492 19.0919C12.1155 21.8256 7.68334 21.8256 4.94967 19.0919C2.216 16.3582 2.216 11.9261 4.94967 9.19237L10.6066 3.53551C12.5592 1.58289 15.725 1.58289 17.6776 3.53551C19.6302 5.48814 19.6302 8.65396 17.6776 10.6066L12.0208 16.2635C10.8492 17.435 8.94967 17.435 7.7781 16.2635C6.60653 15.0919 6.60653 13.1924 7.7781 12.0208L12.3743 7.4246C12.7648 7.03408 13.398 7.03408 13.7885 7.4246C14.1791 7.81513 14.1791 8.44829 13.7885 8.83881L9.19231 13.435C8.80179 13.8256 8.80179 14.4587 9.19231 14.8492C9.58284 15.2398 10.216 15.2398 10.6066 14.8492L16.2634 9.19237C17.435 8.0208 17.435 6.1213 16.2634 4.94973C15.0918 3.77815 13.1923 3.77815 12.0208 4.94973L6.36389 10.6066C4.41126 12.5592 4.41126 15.725 6.36389 17.6777C8.31651 19.6303 11.4824 19.6303 13.435 17.6777L16.617 14.4957Z" fill="#100C34"/>
</svg>
