<svg width="24" height="24" viewBox="0 0 24 24" fill="none" xmlns="http://www.w3.org/2000/svg">
<path fill-rule="evenodd" clip-rule="evenodd" d="M7 2C6.73478 2 6.48043 2.10536 6.29289 2.29289C6.10536 2.48043 6 2.73478 6 3V4.001C5.039 4.015 4.66 4.13 4.279 4.334C3.87638 4.54714 3.54714 4.87638 3.334 5.279C3.116 5.686 3 6.09 3 7.205V17.795C3 18.909 3.116 19.314 3.334 19.721C3.552 20.128 3.872 20.448 4.279 20.666C4.686 20.884 5.09 21 6.205 21H17.795C18.909 21 19.314 20.884 19.721 20.666C20.128 20.448 20.448 20.128 20.666 19.721C20.884 19.314 21 18.91 21 17.795V7.205C21 6.09 20.884 5.686 20.666 5.279C20.4529 4.87638 20.1236 4.54714 19.721 4.334C19.34 4.13 18.961 4.015 18 4V3C18 2.73478 17.8946 2.48043 17.7071 2.29289C17.5196 2.10536 17.2652 2 17 2C16.7348 2 16.4804 2.10536 16.2929 2.29289C16.1054 2.48043 16 2.73478 16 3V4H8V3C8 2.73478 7.89464 2.48043 7.70711 2.29289C7.51957 2.10536 7.26522 2 7 2ZM5 9V17.795C5 18.222 5.019 18.489 5.049 18.644C5.061 18.704 5.066 18.718 5.098 18.778C5.12452 18.8321 5.16808 18.876 5.222 18.903C5.282 18.934 5.295 18.939 5.356 18.951C5.511 18.981 5.778 19 6.205 19H17.795C18.222 19 18.489 18.981 18.644 18.951C18.6915 18.944 18.7371 18.9273 18.778 18.902C18.8321 18.8755 18.876 18.8319 18.903 18.778C18.9279 18.7371 18.9443 18.6915 18.951 18.644C18.981 18.489 19 18.222 19 17.795L19.004 9H5ZM13.75 13C13.5511 13 13.3603 13.079 13.2197 13.2197C13.079 13.3603 13 13.5511 13 13.75V16.25C13 16.664 13.336 17 13.75 17H16.25C16.4489 17 16.6397 16.921 16.7803 16.7803C16.921 16.6397 17 16.4489 17 16.25V13.75C17 13.5511 16.921 13.3603 16.7803 13.2197C16.6397 13.079 16.4489 13 16.25 13H13.75Z" fill="#100C34"/>
</svg>
