<svg width="24" height="24" viewBox="0 0 24 24" fill="none" xmlns="http://www.w3.org/2000/svg">
<mask id="path-1-inside-1_2245_1300" fill="white">
<path fill-rule="evenodd" clip-rule="evenodd" d="M10.5097 3H13.4903C14.2836 3 14.5674 3.04528 14.8751 3.14449C15.1827 3.2437 15.4494 3.39685 15.6901 3.6126C15.9308 3.82834 16.1129 4.05074 16.5126 4.73594L17.25 6H18.7951C19.9095 6 20.3137 6.11603 20.7211 6.33392C21.1285 6.5518 21.4482 6.87154 21.6661 7.27894C21.884 7.68635 22 8.09046 22 9.20486V16.7951C22 17.9095 21.884 18.3136 21.6661 18.7211C21.4482 19.1285 21.1285 19.4482 20.7211 19.6661C20.3137 19.884 19.9095 20 18.7951 20H5.20486C4.09046 20 3.68635 19.884 3.27894 19.6661C2.87154 19.4482 2.5518 19.1285 2.33392 18.7211C2.11603 18.3136 2 17.9095 2 16.7951V9.20486C2 8.09046 2.11603 7.68635 2.33392 7.27894C2.5518 6.87154 2.87154 6.5518 3.27894 6.33392C3.68635 6.11603 4.09046 6 5.20486 6H6.75L7.48737 4.73594C7.88707 4.05074 8.06922 3.82834 8.30993 3.6126C8.55064 3.39685 8.81728 3.2437 9.12492 3.14449C9.43256 3.04528 9.71645 3 10.5097 3ZM10.5097 5C9.96388 5 9.84586 5.01342 9.73878 5.04795C9.69783 5.06116 9.67684 5.07322 9.6448 5.10193C9.56101 5.17703 9.48995 5.27221 9.21493 5.74368L8.47756 7.00774C8.11914 7.62218 7.46133 8 6.75 8H5.20486C4.77844 8 4.51125 8.01899 4.35599 8.04897C4.29517 8.06072 4.28173 8.06567 4.22214 8.09754C4.16327 8.12903 4.12903 8.16327 4.09754 8.22214C4.06567 8.28173 4.06072 8.29517 4.04897 8.35599C4.01899 8.51125 4 8.77844 4 9.20486V16.7951C4 17.2216 4.01899 17.4887 4.04897 17.644C4.06072 17.7048 4.06567 17.7183 4.09754 17.7779C4.12903 17.8367 4.16327 17.871 4.22214 17.9025C4.28173 17.9343 4.29517 17.9393 4.35599 17.951C4.51125 17.981 4.77844 18 5.20486 18H18.7951C19.2216 18 19.4887 17.981 19.644 17.951C19.7048 17.9393 19.7183 17.9343 19.7779 17.9025C19.8367 17.871 19.871 17.8367 19.9025 17.7779C19.9343 17.7183 19.9393 17.7048 19.951 17.644C19.981 17.4887 20 17.2216 20 16.7951V9.20486C20 8.77844 19.981 8.51125 19.951 8.35599C19.9393 8.29517 19.9343 8.28173 19.9025 8.22214C19.871 8.16327 19.8367 8.12903 19.7779 8.09754C19.7183 8.06567 19.7048 8.06072 19.644 8.04897C19.4887 8.01899 19.2216 8 18.7951 8H17.25C16.5387 8 15.8809 7.62218 15.5224 7.00774L14.7851 5.74368C14.51 5.27221 14.439 5.17703 14.3552 5.10193C14.3232 5.07322 14.3022 5.06116 14.2612 5.04795C14.1541 5.01342 14.0361 5 13.4903 5H10.5097ZM12 16C9.79086 16 8 14.2091 8 12C8 9.79086 9.79086 8 12 8C14.2091 8 16 9.79086 16 12C16 14.2091 14.2091 16 12 16ZM12 14C13.1046 14 14 13.1046 14 12C14 10.8954 13.1046 10 12 10C10.8954 10 10 10.8954 10 12C10 13.1046 10.8954 14 12 14Z"/>
</mask>
<path d="M14.8751 3.14449L15.1821 2.19277L15.182 2.19274L14.8751 3.14449ZM15.6901 3.6126L15.0226 4.35725L15.0227 4.35726L15.6901 3.6126ZM16.5126 4.73594L15.6488 5.23981L15.6488 5.23983L16.5126 4.73594ZM17.25 6L16.3862 6.50389L16.6756 7H17.25V6ZM20.7211 6.33392L20.2495 7.21572L20.2495 7.21573L20.7211 6.33392ZM21.6661 7.27894L22.5479 6.80732L22.5479 6.80731L21.6661 7.27894ZM21.6661 18.7211L22.5479 19.1927L22.5479 19.1926L21.6661 18.7211ZM3.27894 19.6661L2.80731 20.5479L2.80732 20.5479L3.27894 19.6661ZM2.33392 18.7211L1.45207 19.1926L1.45211 19.1927L2.33392 18.7211ZM2.33392 7.27894L3.21573 7.75055L3.21573 7.75054L2.33392 7.27894ZM3.27894 6.33392L3.75054 7.21573L3.75055 7.21573L3.27894 6.33392ZM6.75 6V7H7.32437L7.61378 6.50387L6.75 6ZM7.48737 4.73594L8.35115 5.23981L8.35115 5.23981L7.48737 4.73594ZM8.30993 3.6126L8.97736 4.35728L8.97737 4.35726L8.30993 3.6126ZM9.73878 5.04795L9.43187 4.09621L9.43177 4.09624L9.73878 5.04795ZM9.6448 5.10193L8.97746 4.35718L8.97736 4.35726L9.6448 5.10193ZM9.21493 5.74368L10.0787 6.24755L10.0787 6.24755L9.21493 5.74368ZM8.47756 7.00774L7.61378 6.50387L7.61378 6.50387L8.47756 7.00774ZM4.35599 8.04897L4.1664 7.06711L4.1663 7.06713L4.35599 8.04897ZM4.22214 8.09754L3.75053 7.21573L3.75047 7.21576L4.22214 8.09754ZM4.09754 8.22214L3.21576 7.75047L3.21573 7.75053L4.09754 8.22214ZM4.04897 8.35599L3.06713 8.1663L3.06711 8.1664L4.04897 8.35599ZM4.04897 17.644L3.0671 17.8335L3.06714 17.8337L4.04897 17.644ZM4.09754 17.7779L3.2157 18.2494L3.216 18.25L4.09754 17.7779ZM4.22214 17.9025L3.75035 18.7842L3.75134 18.7847L4.22214 17.9025ZM4.35599 17.951L4.54571 16.9692L4.5449 16.969L4.35599 17.951ZM19.644 17.951L19.455 16.969L19.4543 16.9692L19.644 17.951ZM19.7779 17.9025L20.2486 18.7848L20.2501 18.784L19.7779 17.9025ZM19.9025 17.7779L20.784 18.2501L20.7848 18.2486L19.9025 17.7779ZM19.951 17.644L18.9692 17.4543L18.969 17.455L19.951 17.644ZM19.951 8.35599L18.969 8.5449L18.9692 8.54571L19.951 8.35599ZM19.9025 8.22214L20.7847 7.75134L20.7842 7.75036L19.9025 8.22214ZM19.7779 8.09754L20.25 7.216L20.2494 7.2157L19.7779 8.09754ZM19.644 8.04897L19.8337 7.06714L19.8335 7.0671L19.644 8.04897ZM15.5224 7.00774L14.6586 7.51158L14.6587 7.51169L15.5224 7.00774ZM14.7851 5.74368L15.6489 5.23984L15.6488 5.23971L14.7851 5.74368ZM14.3552 5.10193L13.6874 5.84626L13.6878 5.84664L14.3552 5.10193ZM14.2612 5.04795L13.9543 5.99971L13.9545 5.99977L14.2612 5.04795ZM10.5097 4H13.4903V2H10.5097V4ZM13.4903 4C14.2449 4 14.4071 4.04428 14.5682 4.09624L15.182 2.19274C14.7277 2.04628 14.3223 2 13.4903 2V4ZM14.5681 4.09621C14.7425 4.15244 14.8863 4.23507 15.0226 4.35725L16.3576 2.86795C16.0125 2.55863 15.6229 2.33496 15.1821 2.19277L14.5681 4.09621ZM15.0227 4.35726C15.1486 4.47016 15.2686 4.58795 15.6488 5.23981L17.3764 4.23207C16.9572 3.51353 16.713 3.18652 16.3575 2.86794L15.0227 4.35726ZM15.6488 5.23983L16.3862 6.50389L18.1138 5.49611L17.3764 4.23205L15.6488 5.23983ZM17.25 7H18.7951V5H17.25V7ZM18.7951 7C19.3256 7 19.6329 7.02834 19.8336 7.06711C20.0107 7.10131 20.119 7.14593 20.2495 7.21572L21.1927 5.45212C20.5811 5.125 19.9905 5 18.7951 5V7ZM20.2495 7.21573C20.4826 7.34039 20.6596 7.51737 20.7843 7.75057L22.5479 6.80731C22.2368 6.22571 21.7744 5.76321 21.1927 5.45211L20.2495 7.21573ZM20.7843 7.75056C20.8541 7.88108 20.8987 7.98929 20.9329 8.16637C20.9717 8.36712 21 8.67439 21 9.20486H23C23 8.00949 22.875 7.41897 22.5479 6.80732L20.7843 7.75056ZM21 9.20486V16.7951H23V9.20486H21ZM21 16.7951C21 17.3256 20.9717 17.6328 20.9329 17.8336C20.8987 18.0107 20.8541 18.119 20.7843 18.2496L22.5479 19.1926C22.875 18.581 23 17.9905 23 16.7951H21ZM20.7843 18.2495C20.6596 18.4826 20.4826 18.6596 20.2495 18.7843L21.1927 20.5479C21.7744 20.2368 22.2368 19.7744 22.5479 19.1927L20.7843 18.2495ZM20.2495 18.7843C20.119 18.8541 20.0108 18.8987 19.8337 18.9329C19.6329 18.9717 19.3256 19 18.7951 19V21C19.9904 21 20.5811 20.875 21.1927 20.5479L20.2495 18.7843ZM18.7951 19H5.20486V21H18.7951V19ZM5.20486 19C4.67439 19 4.36712 18.9717 4.16636 18.9329C3.98929 18.8987 3.88108 18.8541 3.75056 18.7843L2.80732 20.5479C3.41897 20.875 4.00949 21 5.20486 21V19ZM3.75057 18.7843C3.51737 18.6596 3.34039 18.4826 3.21573 18.2495L1.45211 19.1927C1.76321 19.7744 2.22571 20.2368 2.80731 20.5479L3.75057 18.7843ZM3.21577 18.2496C3.14593 18.1189 3.10131 18.0107 3.06711 17.8336C3.02834 17.6328 3 17.3256 3 16.7951H1C1 17.9906 1.12502 18.581 1.45207 19.1926L3.21577 18.2496ZM3 16.7951V9.20486H1V16.7951H3ZM3 9.20486C3 8.6744 3.02834 8.36713 3.06711 8.16638C3.10131 7.9893 3.14591 7.88109 3.21573 7.75055L1.45211 6.80733C1.12501 7.41895 1 8.00944 1 9.20486H3ZM3.21573 7.75054C3.34041 7.51741 3.51741 7.34041 3.75054 7.21573L2.80734 5.45211C2.22567 5.76319 1.76319 6.22567 1.45211 6.80734L3.21573 7.75054ZM3.75055 7.21573C3.88109 7.14591 3.9893 7.10131 4.16638 7.06711C4.36713 7.02835 4.6744 7 5.20486 7V5C4.00944 5 3.41895 5.12501 2.80733 5.45211L3.75055 7.21573ZM5.20486 7H6.75V5H5.20486V7ZM7.61378 6.50387L8.35115 5.23981L6.62359 4.23207L5.88622 5.49613L7.61378 6.50387ZM8.35115 5.23981C8.73136 4.58802 8.85136 4.4702 8.97736 4.35728L7.6425 2.86792C7.28708 3.18648 7.04278 3.51346 6.62359 4.23207L8.35115 5.23981ZM8.97737 4.35726C9.11374 4.23503 9.25756 4.15243 9.43184 4.09622L8.818 2.19276C8.377 2.33497 7.98754 2.55867 7.64249 2.86794L8.97737 4.35726ZM9.43184 4.09622C9.59289 4.04429 9.75514 4 10.5097 4V2C9.67776 2 9.27223 2.04627 8.818 2.19276L9.43184 4.09622ZM10.5097 4C10.0095 4 9.71886 4.00367 9.43187 4.09621L10.0457 5.99969C10.0342 6.0034 10.017 6.00793 10.0014 6.01068C9.99103 6.01251 9.9959 6.01091 10.0286 6.00865C10.1016 6.00361 10.2366 6 10.5097 6V4ZM9.43177 4.09624C9.25747 4.15247 9.11374 4.23506 8.97746 4.35718L10.3121 5.84668C10.2993 5.85822 10.2547 5.8971 10.1865 5.93625C10.1184 5.97541 10.0623 5.99433 10.0458 5.99966L9.43177 4.09624ZM8.97736 4.35726C8.7528 4.55854 8.60318 4.80776 8.35115 5.23981L10.0787 6.24755C10.2163 6.01163 10.2874 5.89689 10.3286 5.83634C10.347 5.80924 10.3509 5.80585 10.344 5.8139C10.3338 5.82598 10.3212 5.83852 10.3122 5.8466L8.97736 4.35726ZM8.35115 5.23981L7.61378 6.50387L9.34134 7.51161L10.0787 6.24755L8.35115 5.23981ZM7.61378 6.50387C7.43457 6.81109 7.10567 7 6.75 7V9C7.81699 9 8.80371 8.43327 9.34134 7.51161L7.61378 6.50387ZM6.75 7H5.20486V9H6.75V7ZM5.20486 7C4.76944 7 4.42136 7.01787 4.1664 7.06711L4.54558 9.03083C4.60114 9.02011 4.78744 9 5.20486 9V7ZM4.1663 7.06713C4.13293 7.07357 4.04624 7.08981 3.94709 7.12583C3.85334 7.1599 3.7774 7.20136 3.75053 7.21573L4.69375 8.97935C4.70679 8.97237 4.70404 8.97404 4.69555 8.97815C4.6842 8.98365 4.66109 8.99433 4.63012 9.00559C4.56779 9.02823 4.51823 9.03612 4.54568 9.03082L4.1663 7.06713ZM3.75047 7.21576C3.51738 7.34044 3.34044 7.51739 3.21576 7.75047L4.97932 8.69381C4.96087 8.7283 4.92242 8.79094 4.85668 8.85668C4.79094 8.92242 4.7283 8.96086 4.69381 8.97932L3.75047 7.21576ZM3.21573 7.75053C3.20136 7.7774 3.1599 7.85334 3.12583 7.94709C3.08981 8.04624 3.07357 8.13293 3.06713 8.1663L5.03082 8.54568C5.03612 8.51823 5.02823 8.56779 5.00559 8.63012C4.99433 8.66109 4.98365 8.6842 4.97815 8.69555C4.97404 8.70404 4.97237 8.70679 4.97935 8.69375L3.21573 7.75053ZM3.06711 8.1664C3.01787 8.42136 3 8.76944 3 9.20486H5C5 8.78744 5.02011 8.60114 5.03083 8.54558L3.06711 8.1664ZM3 9.20486V16.7951H5V9.20486H3ZM3 16.7951C3 17.2306 3.01788 17.5786 3.0671 17.8335L5.03084 17.4545C5.0201 17.3988 5 17.2126 5 16.7951H3ZM3.06714 17.8337C3.07357 17.867 3.08979 17.9536 3.12575 18.0527C3.1598 18.1465 3.20121 18.2223 3.2157 18.2494L4.97938 17.3064C4.97245 17.2934 4.97413 17.2962 4.97826 17.3047C4.98377 17.3161 4.99444 17.3392 5.00567 17.3701C5.02825 17.4323 5.03612 17.4818 5.0308 17.4543L3.06714 17.8337ZM3.216 18.25C3.34042 18.4823 3.51702 18.6594 3.75035 18.7842L4.69392 17.0208C4.72865 17.0394 4.79121 17.0778 4.85681 17.1435C4.92236 17.209 4.9607 17.2715 4.97908 17.3058L3.216 18.25ZM3.75134 18.7847C3.77782 18.7989 3.8537 18.8402 3.9472 18.8742C4.04648 18.9103 4.13317 18.9265 4.16708 18.933L4.5449 16.969C4.51799 16.9638 4.56755 16.9717 4.63001 16.9944C4.66093 17.0056 4.68395 17.0162 4.69514 17.0217C4.70347 17.0257 4.70612 17.0273 4.69294 17.0203L3.75134 18.7847ZM4.16627 18.9328C4.42131 18.9821 4.76945 19 5.20486 19V17C4.78743 17 4.60119 16.9799 4.54571 16.9692L4.16627 18.9328ZM5.20486 19H18.7951V17H5.20486V19ZM18.7951 19C19.2306 19 19.5786 18.9821 19.8337 18.9328L19.4543 16.9692C19.3988 16.9799 19.2126 17 18.7951 17V19ZM19.833 18.933C19.8668 18.9265 19.9534 18.9103 20.0526 18.8743C20.1461 18.8403 20.2219 18.799 20.2486 18.7848L19.3072 17.0202C19.2941 17.0272 19.2967 17.0256 19.3051 17.0216C19.3163 17.0161 19.3394 17.0055 19.3702 16.9943C19.4325 16.9717 19.482 16.9638 19.455 16.969L19.833 18.933ZM20.2501 18.784C20.4827 18.6594 20.6594 18.4827 20.784 18.2501L19.021 17.3057C19.0395 17.2711 19.0779 17.2088 19.1433 17.1433C19.2088 17.0779 19.2711 17.0395 19.3057 17.021L20.2501 18.784ZM20.7848 18.2486C20.799 18.2219 20.8403 18.1461 20.8743 18.0526C20.9103 17.9534 20.9265 17.8668 20.933 17.833L18.969 17.455C18.9638 17.482 18.9717 17.4325 18.9943 17.3702C19.0055 17.3394 19.0161 17.3163 19.0216 17.3051C19.0256 17.2967 19.0272 17.2941 19.0202 17.3072L20.7848 18.2486ZM20.9328 17.8337C20.9821 17.5786 21 17.2306 21 16.7951H19C19 17.2126 18.9799 17.3988 18.9692 17.4543L20.9328 17.8337ZM21 16.7951V9.20486H19V16.7951H21ZM21 9.20486C21 8.76945 20.9821 8.42131 20.9328 8.16628L18.9692 8.54571C18.9799 8.60119 19 8.78743 19 9.20486H21ZM20.933 8.16708C20.9265 8.13317 20.9103 8.04648 20.8742 7.9472C20.8402 7.8537 20.7989 7.77782 20.7847 7.75134L19.0203 8.69294C19.0273 8.70612 19.0257 8.70347 19.0217 8.69514C19.0162 8.68395 19.0056 8.66093 18.9944 8.63001C18.9717 8.56755 18.9638 8.51799 18.969 8.5449L20.933 8.16708ZM20.7842 7.75036C20.6594 7.51702 20.4823 7.34042 20.25 7.216L19.3058 8.97908C19.2715 8.9607 19.209 8.92236 19.1435 8.85681C19.0778 8.79121 19.0394 8.72865 19.0208 8.69393L20.7842 7.75036ZM20.2494 7.2157C20.2223 7.20121 20.1465 7.1598 20.0527 7.12575C19.9536 7.08979 19.867 7.07357 19.8337 7.06714L19.4543 9.0308C19.4818 9.03612 19.4323 9.02825 19.3701 9.00567C19.3392 8.99444 19.3161 8.98377 19.3047 8.97826C19.2962 8.97413 19.2934 8.97245 19.3064 8.97938L20.2494 7.2157ZM19.8335 7.0671C19.5786 7.01788 19.2306 7 18.7951 7V9C19.2126 9 19.3988 9.0201 19.4545 9.03084L19.8335 7.0671ZM18.7951 7H17.25V9H18.7951V7ZM17.25 7C16.8944 7 16.5654 6.81111 16.3861 6.50379L14.6587 7.51169C15.1964 8.43325 16.183 9 17.25 9V7ZM16.3862 6.5039L15.6489 5.23984L13.9213 6.24752L14.6586 7.51158L16.3862 6.5039ZM15.6488 5.23971C15.3969 4.80789 15.2472 4.55852 15.0226 4.35722L13.6878 5.84664C13.6787 5.83851 13.6662 5.82594 13.6559 5.81385C13.6491 5.80579 13.6529 5.80919 13.6714 5.83631C13.7126 5.89692 13.7837 6.0117 13.9214 6.24765L15.6488 5.23971ZM15.023 4.3576C14.8863 4.23497 14.7422 4.15231 14.5679 4.09613L13.9545 5.99977C13.9381 5.99446 13.8819 5.97554 13.8136 5.93631C13.7452 5.89703 13.7005 5.85798 13.6874 5.84626L15.023 4.3576ZM14.5681 4.09619C14.2811 4.00367 13.9905 4 13.4903 4V6C13.7634 6 13.8983 6.00361 13.9714 6.00865C14.0041 6.01091 14.0089 6.01251 13.9986 6.01068C13.983 6.00793 13.9658 6.00341 13.9543 5.99971L14.5681 4.09619ZM13.4903 4H10.5097V6H13.4903V4ZM12 15C10.3432 15 9 13.6568 9 12H7C7 14.7614 9.23857 17 12 17V15ZM9 12C9 10.3431 10.3431 9 12 9V7C9.23857 7 7 9.23857 7 12H9ZM12 9C13.6568 9 15 10.3432 15 12H17C17 9.23857 14.7614 7 12 7V9ZM15 12C15 13.6568 13.6568 15 12 15V17C14.7614 17 17 14.7614 17 12H15ZM12 15C13.6569 15 15 13.6569 15 12H13C13 12.5523 12.5523 13 12 13V15ZM15 12C15 10.3431 13.6569 9 12 9V11C12.5523 11 13 11.4477 13 12H15ZM12 9C10.3431 9 9 10.3431 9 12H11C11 11.4477 11.4477 11 12 11V9ZM9 12C9 13.6569 10.3431 15 12 15V13C11.4477 13 11 12.5523 11 12H9Z" fill="#83828F" mask="url(#path-1-inside-1_2245_1300)"/>
</svg>
