<svg width="32" height="32" viewBox="0 0 32 32" fill="none" xmlns="http://www.w3.org/2000/svg">
<path fill-rule="evenodd" clip-rule="evenodd" d="M5.51501 27.8868C5.61913 27.9592 5.74257 27.9986 5.86936 28C9.50187 28.0403 12.1645 27.3382 13.8489 25.8091C14.7551 25.9995 15.6981 26.1 16.6667 26.1C23.6623 26.1 29.3333 20.8543 29.3333 14.3834C29.3333 7.91242 23.6623 2.66669 16.6667 2.66669C9.67105 2.66669 4 7.91242 4 14.3834C4 17.3836 5.21909 20.1204 7.22407 22.1932C7.05391 23.8864 6.43272 25.5046 5.36056 27.0475C5.16097 27.3347 5.2278 27.6872 5.51501 27.8868ZM14.4 23.2247C13.6153 23.0598 12.7993 23.2812 12.2056 23.8202C11.5352 24.4288 10.1173 25.2712 8.78757 25.5263C9.41257 24.6216 9.74045 23.3015 9.83579 22.3528C9.90935 21.6208 9.65673 20.8936 9.14521 20.3648C7.55123 18.717 6.66667 16.6172 6.66667 14.3959C6.66667 9.43619 11.1022 5.33335 16.6667 5.33335C22.2312 5.33335 26.6667 9.43619 26.6667 14.3959C26.6667 19.3555 22.2312 23.4584 16.6667 23.4584C15.8951 23.4584 15.1364 23.3794 14.4 23.2247Z" fill="#FF00A8"/>
</svg>
