<svg width="24" height="24" viewBox="0 0 24 24" fill="none" xmlns="http://www.w3.org/2000/svg">
<path fill-rule="evenodd" clip-rule="evenodd" d="M5.70711 19.7071C5.31658 20.0976 4.68342 20.0976 4.29289 19.7071C3.90237 19.3166 3.90237 18.6834 4.29289 18.2929L10.5867 11.9991L4.29289 5.70528C3.90237 5.31476 3.90237 4.68159 4.29289 4.29107C4.68342 3.90055 5.31658 3.90055 5.70711 4.29107L12.0009 10.5849L18.2947 4.29107C18.6852 3.90055 19.3184 3.90055 19.7089 4.29107C20.0995 4.68159 20.0995 5.31476 19.7089 5.70528L13.4151 11.9991L19.7089 18.2929C20.0995 18.6834 20.0995 19.3166 19.7089 19.7071C19.3184 20.0976 18.6852 20.0976 18.2947 19.7071L12.0009 13.4133L5.70711 19.7071Z" fill="#83828F"/>
</svg>
