<svg width="32" height="32" viewBox="0 0 32 32" fill="none" xmlns="http://www.w3.org/2000/svg">
<path d="M15.8351 2.99994C8.47198 2.99994 2.50012 9.12163 2.50012 16.6721C2.50012 22.7128 6.3206 27.8376 11.6202 29.6457C12.2858 29.7722 12.5014 29.3484 12.5014 28.9883V26.4431C8.79202 27.2702 8.0197 24.8297 8.0197 24.8297C7.41296 23.2495 6.5384 22.8291 6.5384 22.8291C5.32825 21.9802 6.63064 21.9985 6.63064 21.9985C7.96969 22.0942 8.67423 23.4078 8.67423 23.4078C9.86327 25.4974 11.7935 24.8936 12.5547 24.5438C12.6736 23.6608 13.0192 23.0569 13.4015 22.7163C10.44 22.3688 7.32628 21.1964 7.32628 15.9588C7.32628 14.4651 7.84746 13.246 8.69979 12.289C8.56199 11.9438 8.10527 10.5526 8.8298 8.67045C8.8298 8.67045 9.94994 8.30358 12.498 10.0718C13.5615 9.76877 14.7016 9.61724 15.8351 9.61155C16.9686 9.61724 18.1098 9.76877 19.1755 10.0718C21.7214 8.30358 22.8393 8.67045 22.8393 8.67045C23.565 10.5538 23.1083 11.9449 22.9705 12.289C23.8261 13.246 24.3429 14.4663 24.3429 15.9588C24.3429 21.2101 21.2236 22.3665 18.2543 22.7049C18.7322 23.1287 19.1689 23.9604 19.1689 25.2365V28.9883C19.1689 29.3518 19.3822 29.7791 20.059 29.6446C25.3541 27.8342 29.1701 22.7106 29.1701 16.6721C29.1701 9.12163 23.1994 2.99994 15.8351 2.99994Z" fill="#100C34"/>
</svg>
