<svg width="60" height="68" viewBox="0 0 60 68" fill="none" xmlns="http://www.w3.org/2000/svg">
<g clip-path="url(#clip0_324_1268)">
<g filter="url(#filter0_f_324_1268)">
<path d="M30.51 56.523C30.5041 56.6516 30.4488 56.7729 30.3557 56.8618C30.2625 56.9506 30.1387 57.0001 30.01 57C29.72 57 29.5 56.79 29.49 56.523C29.345 53.355 27.734 51.306 24.658 50.376C14.53 47.968 7 38.863 7 28C7 15.297 17.297 5 30 5C42.703 5 53 15.297 53 28C53 38.863 45.47 47.968 35.342 50.376C32.266 51.306 30.655 53.356 30.512 56.523H30.51Z" fill="#FF313C"/>
</g>
<path d="M30.51 56.523C30.5041 56.6516 30.4488 56.7729 30.3557 56.8618C30.2625 56.9506 30.1387 57.0001 30.01 57C29.72 57 29.5 56.79 29.49 56.523C29.345 53.355 27.734 51.306 24.658 50.376C14.53 47.968 7 38.863 7 28C7 15.297 17.297 5 30 5C42.703 5 53 15.297 53 28C53 38.863 45.47 47.968 35.342 50.376C32.266 51.306 30.655 53.356 30.512 56.523H30.51Z" fill="#FF313C"/>
<path d="M30 68C27.79 68 26 66.21 26 64C26 61.79 27.79 60 30 60C32.21 60 34 61.79 34 64C34 66.21 32.21 68 30 68Z" fill="white"/>
<path fill-rule="evenodd" clip-rule="evenodd" d="M30 65.9995C30.2663 66.0055 30.5311 65.9583 30.779 65.8605C31.0268 65.7628 31.2526 65.6165 31.4431 65.4303C31.6336 65.2441 31.785 65.0217 31.8884 64.7761C31.9918 64.5306 32.0451 64.2669 32.0452 64.0005C32.0452 63.7341 31.9921 63.4704 31.8888 63.2248C31.7855 62.9792 31.6343 62.7567 31.4438 62.5704C31.2534 62.3841 31.0277 62.2377 30.7799 62.1399C30.5321 62.042 30.2673 61.9946 30.0009 62.0005C29.4784 62.012 28.9811 62.2277 28.6156 62.6013C28.25 62.9749 28.0453 63.4768 28.0452 63.9995C28.045 64.5222 28.2495 65.0242 28.6149 65.398C28.9802 65.7718 29.4774 65.9877 30 65.9995V65.9995Z" fill="#FF313C"/>
<path fill-rule="evenodd" clip-rule="evenodd" d="M30 21C26.667 21 23.333 21.667 20 23V32.476C20.0001 33.5642 20.2626 34.6364 20.7651 35.6017C21.2677 36.5669 21.9955 37.3968 22.887 38.021L30 43L37.113 38.021C38.0045 37.3969 38.7324 36.567 39.235 35.6017C39.7375 34.6365 40 33.5643 40 32.476V23C36.667 21.667 33.333 21 30 21ZM30 28V23C32.658 23 35.322 23.46 38 24.388V32.476C37.9999 33.2428 37.8151 33.9982 37.461 34.6783C37.1069 35.3585 36.5941 35.9432 35.966 36.383L30 40.559V34L27 31L30 28Z" fill="white"/>
</g>
<defs>
<filter id="filter0_f_324_1268" x="1" y="-1" width="58" height="64" filterUnits="userSpaceOnUse" color-interpolation-filters="sRGB">
<feFlood flood-opacity="0" result="BackgroundImageFix"/>
<feBlend mode="normal" in="SourceGraphic" in2="BackgroundImageFix" result="shape"/>
<feGaussianBlur stdDeviation="3" result="effect1_foregroundBlur_324_1268"/>
</filter>
<clipPath id="clip0_324_1268">
<rect width="60" height="68" fill="white"/>
</clipPath>
</defs>
</svg>
