<svg width="24" height="24" viewBox="0 0 24 24" fill="none" xmlns="http://www.w3.org/2000/svg">
<path d="M6 4.5C5.60218 4.5 5.22064 4.65804 4.93934 4.93934C4.65804 5.22064 4.5 5.60218 4.5 6V18C4.5 18.3978 4.65804 18.7794 4.93934 19.0607C5.22064 19.342 5.60218 19.5 6 19.5V14.25C6 13.6533 6.23705 13.081 6.65901 12.659C7.08097 12.2371 7.65326 12 8.25 12H15.75C16.3467 12 16.919 12.2371 17.341 12.659C17.7629 13.081 18 13.6533 18 14.25V19.5C18.3978 19.5 18.7794 19.342 19.0607 19.0607C19.342 18.7794 19.5 18.3978 19.5 18V8.4315C19.4999 8.03371 19.3418 7.65224 19.0605 7.371L16.629 4.9395C16.3478 4.65818 15.9663 4.50008 15.5685 4.5H15V6.75C15 7.34674 14.7629 7.91903 14.341 8.34099C13.919 8.76295 13.3467 9 12.75 9H9.75C9.15326 9 8.58097 8.76295 8.15901 8.34099C7.73705 7.91903 7.5 7.34674 7.5 6.75V4.5H6ZM9 4.5V6.75C9 6.94891 9.07902 7.13968 9.21967 7.28033C9.36032 7.42098 9.55109 7.5 9.75 7.5H12.75C12.9489 7.5 13.1397 7.42098 13.2803 7.28033C13.421 7.13968 13.5 6.94891 13.5 6.75V4.5H9ZM16.5 19.5V14.25C16.5 14.0511 16.421 13.8603 16.2803 13.7197C16.1397 13.579 15.9489 13.5 15.75 13.5H8.25C8.05109 13.5 7.86032 13.579 7.71967 13.7197C7.57902 13.8603 7.5 14.0511 7.5 14.25V19.5H16.5ZM3 6C3 5.20435 3.31607 4.44129 3.87868 3.87868C4.44129 3.31607 5.20435 3 6 3H15.5685C16.3641 3.00017 17.127 3.31635 17.6895 3.879L20.121 6.3105C20.6836 6.87298 20.9998 7.63592 21 8.4315V18C21 18.7956 20.6839 19.5587 20.1213 20.1213C19.5587 20.6839 18.7956 21 18 21H6C5.20435 21 4.44129 20.6839 3.87868 20.1213C3.31607 19.5587 3 18.7956 3 18V6Z" fill="#3B23B7"/>
</svg>
