<svg width="32" height="32" viewBox="0 0 32 32" fill="none" xmlns="http://www.w3.org/2000/svg">
<path fill-rule="evenodd" clip-rule="evenodd" d="M29.3333 16C29.3333 23.3638 23.3638 29.3334 16 29.3334C8.63616 29.3334 2.66663 23.3638 2.66663 16C2.66663 8.63622 8.63616 2.66669 16 2.66669C23.3638 2.66669 29.3333 8.63622 29.3333 16ZM16.4778 12.5099C15.1809 13.0493 12.589 14.1657 8.70209 15.8592C8.07091 16.1102 7.74027 16.3558 7.71017 16.5959C7.6593 17.0016 8.16745 17.1614 8.8594 17.379C8.95353 17.4086 9.05105 17.4393 9.15103 17.4718C9.83181 17.693 10.7476 17.9519 11.2236 17.9622C11.6555 17.9716 12.1375 17.7935 12.6696 17.4281C16.3013 14.9766 18.176 13.7375 18.2937 13.7108C18.3767 13.692 18.4918 13.6683 18.5697 13.7376C18.6477 13.8069 18.64 13.9381 18.6318 13.9733C18.5814 14.1879 16.5868 16.0423 15.5546 17.0019C15.2328 17.3011 15.0045 17.5133 14.9579 17.5618C14.8533 17.6704 14.7468 17.773 14.6444 17.8717C14.012 18.4814 13.5377 18.9387 14.6707 19.6853C15.2151 20.0441 15.6508 20.3408 16.0855 20.6368C16.5602 20.96 17.0336 21.2825 17.6462 21.684C17.8023 21.7863 17.9514 21.8926 18.0965 21.9961C18.649 22.3899 19.1453 22.7438 19.7584 22.6873C20.1147 22.6545 20.4827 22.3195 20.6696 21.3204C21.1113 18.959 21.9796 13.8427 22.1802 11.7344C22.1978 11.5497 22.1757 11.3133 22.1579 11.2095C22.1402 11.1057 22.1031 10.9579 21.9682 10.8484C21.8084 10.7188 21.5618 10.6915 21.4515 10.6934C20.95 10.7022 20.1806 10.9698 16.4778 12.5099Z" fill="#100C34"/>
</svg>
