 <svg
        width="130"
        height="25"
        viewBox="0 0 130 26"
        fill="none"
        xmlns="http://www.w3.org/2000/svg">
        <path
          d="M4.83287 0.832226L11.1619 19.9589H11.4113L17.7284 0.832226H22.5732L13.9999 25.1322H8.56142L0 0.832226H4.83287Z"
          fill="#FF00A8"
        />
        <path d="M32.6895 0.832226V25.1322H28.2842V0.832226H32.6895Z" fill="#FF00A8" />
        <path
          d="M53.1841 7.51234C53.0733 6.47611 52.6062 5.66928 51.7829 5.09184C50.9676 4.5144 49.9068 4.22568 48.6006 4.22568C47.6823 4.22568 46.8947 4.3641 46.2376 4.64096C45.5806 4.91781 45.0779 5.29354 44.7296 5.76815C44.3812 6.24276 44.2031 6.78461 44.1952 7.39369C44.1952 7.89994 44.31 8.33895 44.5396 8.71073C44.7771 9.0825 45.0977 9.39891 45.5014 9.65994C45.9051 9.91307 46.3524 10.1266 46.8432 10.3007C47.334 10.4747 47.8288 10.621 48.3275 10.7397L50.6074 11.3092C51.5257 11.5228 52.4083 11.8115 53.2554 12.1754C54.1103 12.5392 54.8742 12.998 55.5471 13.5517C56.2279 14.1054 56.7662 14.7738 57.162 15.557C57.5578 16.3401 57.7557 17.2576 57.7557 18.3097C57.7557 19.7335 57.3916 20.9873 56.6633 22.071C55.935 23.1467 54.8822 23.9892 53.5047 24.5982C52.1352 25.1994 50.4768 25.5 48.5294 25.5C46.6374 25.5 44.9948 25.2073 43.6015 24.622C42.2162 24.0366 41.1316 23.1823 40.3479 22.0591C39.5721 20.9358 39.1526 19.5674 39.0892 17.9537H43.4234C43.4867 18.8001 43.7479 19.5041 44.2071 20.0657C44.6662 20.6274 45.2639 21.0466 46.0001 21.3234C46.7442 21.6003 47.5755 21.7387 48.4937 21.7387C49.4516 21.7387 50.2907 21.5963 51.0111 21.3116C51.7394 21.0189 52.3094 20.6155 52.721 20.1013C53.1327 19.5793 53.3424 18.9702 53.3504 18.2741C53.3424 17.6413 53.1564 17.1192 52.7923 16.7079C52.4281 16.2886 51.9175 15.9406 51.2605 15.6637C50.6113 15.379 49.8514 15.1259 48.9806 14.9044L46.2139 14.1925C44.2111 13.6783 42.6278 12.8991 41.4641 11.855C40.3083 10.803 39.7305 9.40682 39.7305 7.66659C39.7305 6.23485 40.1183 4.98109 40.8941 3.90532C41.6778 2.82954 42.7426 1.99502 44.0883 1.40176C45.4341 0.800585 46.958 0.5 48.66 0.5C50.3857 0.5 51.8977 0.800585 53.196 1.40176C54.5022 1.99502 55.5273 2.82163 56.2714 3.88158C57.0156 4.93363 57.3995 6.14389 57.4233 7.51234H53.1841Z"
          fill="#FF00A8"
        />
        <path d="M68.5964 0.832226V25.1322H64.1911V0.832226H68.5964Z" fill="#FF00A8" />
        <path
          d="M74.8062 4.52231V0.832226H94.2089V4.52231H86.6924V25.1322H82.3226V4.52231H74.8062Z"
          fill="#FF00A8"
        />
        <path
          d="M100.457 25.1322V0.832226H104.863V11.9974H105.159L114.647 0.832226H120.026L110.622 11.7364L120.109 25.1322H114.813L107.558 14.7145L104.863 17.8944V25.1322H100.457Z"
          fill="#FF00A8"
        />
        <path d="M130 0.832226V25.1322H125.595V0.832226H130Z" fill="#FF00A8" />
      </svg>
