<svg width="24" height="24" viewBox="0 0 24 24" fill="none" xmlns="http://www.w3.org/2000/svg">
<path d="M3 6.6H21M10.2 11.1V15.6M13.8 11.1V15.6M4.8 6.6H19.2L17.778 19.398C17.7293 19.8384 17.5198 20.2454 17.1896 20.541C16.8595 20.8366 16.4319 21 15.9888 21H8.0112C7.56807 21 7.14051 20.8366 6.81037 20.541C6.48024 20.2454 6.27074 19.8384 6.222 19.398L4.8 6.6ZM7.8105 4.0323C7.95608 3.72357 8.18644 3.4626 8.4747 3.27982C8.76297 3.09704 9.09727 3 9.4386 3H14.5614C14.9029 2.99983 15.2374 3.09679 15.5258 3.27958C15.8143 3.46237 16.0448 3.72343 16.1904 4.0323L17.4 6.6H6.6L7.8105 4.0323Z" stroke="#E90D41" stroke-width="2" stroke-linecap="round" stroke-linejoin="round"/>
</svg>
