<svg width="440" height="9" viewBox="0 0 440 9" fill="none" xmlns="http://www.w3.org/2000/svg">
<path d="M2 5.125L8.08427 2.8434C11.2537 1.65488 14.7463 1.65488 17.9157 2.8434L24.0843 5.1566C27.2537 6.34512 30.7463 6.34512 33.9157 5.1566L40.0843 2.8434C43.2537 1.65488 46.7463 1.65488 49.9157 2.8434L56.0843 5.1566C59.2537 6.34512 62.7463 6.34512 65.9157 5.1566L72.0843 2.8434C75.2537 1.65488 78.7463 1.65488 81.9157 2.8434L88.0843 5.1566C91.2537 6.34512 94.7463 6.34512 97.9157 5.1566L104.084 2.8434C107.254 1.65488 110.746 1.65488 113.916 2.8434L120.084 5.1566C123.254 6.34512 126.746 6.34512 129.916 5.1566L136.084 2.8434C139.254 1.65488 142.746 1.65488 145.916 2.8434L152.084 5.1566C155.254 6.34512 158.746 6.34512 161.916 5.1566L168.084 2.8434C171.254 1.65488 174.746 1.65488 177.916 2.8434L184.084 5.1566C187.254 6.34512 190.746 6.34512 193.916 5.1566L200.084 2.8434C203.254 1.65488 206.746 1.65488 209.916 2.8434L216.084 5.1566C219.254 6.34512 222.746 6.34512 225.916 5.1566L232.084 2.8434C235.254 1.65488 238.746 1.65488 241.916 2.8434L248.084 5.1566C251.254 6.34512 254.746 6.34512 257.916 5.1566L264.084 2.8434C267.254 1.65488 270.746 1.65488 273.916 2.8434L280.084 5.1566C283.254 6.34512 286.746 6.34512 289.916 5.1566L296.084 2.8434C299.254 1.65488 302.746 1.65488 305.916 2.8434L312.084 5.1566C315.254 6.34512 318.746 6.34512 321.916 5.1566L328.084 2.8434C331.254 1.65488 334.746 1.65488 337.916 2.8434L344.084 5.1566C347.254 6.34512 350.746 6.34512 353.916 5.1566L360.084 2.8434C363.254 1.65488 366.746 1.65488 369.916 2.8434L376.084 5.1566C379.254 6.34512 382.746 6.34512 385.916 5.1566L392.084 2.8434C395.254 1.65488 398.746 1.65488 401.916 2.8434L408.084 5.1566C411.254 6.34512 414.746 6.34512 417.916 5.1566L422.732 3.35056C426.696 1.86412 431.119 2.25111 434.765 4.40324L438.438 6.57143" stroke="black" stroke-width="3" stroke-linecap="round"/>
</svg>
