<svg width="15" height="13" viewBox="0 0 15 13" fill="none" xmlns="http://www.w3.org/2000/svg">
<path d="M7.50213 12.1818L1.66122 6.34091C1.19531 5.875 0.884706 5.33333 0.729403 4.71591C0.577888 4.09848 0.579782 3.48485 0.735085 2.875C0.890388 2.26136 1.1991 1.72727 1.66122 1.27273C2.13471 0.806818 2.67448 0.498106 3.28054 0.346591C3.89039 0.191288 4.49834 0.191288 5.1044 0.346591C5.71425 0.501894 6.25592 0.810606 6.7294 1.27273L7.50213 2.02273L8.27486 1.27273C8.75213 0.810606 9.2938 0.501894 9.89986 0.346591C10.5059 0.191288 11.112 0.191288 11.718 0.346591C12.3279 0.498106 12.8696 0.806818 13.343 1.27273C13.8052 1.72727 14.1139 2.26136 14.2692 2.875C14.4245 3.48485 14.4245 4.09848 14.2692 4.71591C14.1177 5.33333 13.8089 5.875 13.343 6.34091L7.50213 12.1818Z" fill="black" fill-opacity="0.8"/>
</svg>
